<mxfile host="app.diagrams.net" modified="2022-08-07T13:53:02.885Z" agent="5.0 (Windows NT 10.0; Win64; x64) AppleWebKit/537.36 (KHTML, like Gecko) Chrome/94.0.4606.20 Safari/537.36" etag="Iz58IamKIyMeABKyjSPQ" version="20.1.4" type="github">
  <diagram id="u9_7_N0cAeHUR9g9fG9B" name="第 1 页">
    <mxGraphModel dx="1422" dy="794" grid="1" gridSize="10" guides="1" tooltips="1" connect="1" arrows="1" fold="1" page="1" pageScale="1" pageWidth="827" pageHeight="1169" math="0" shadow="0">
      <root>
        <mxCell id="0" />
        <mxCell id="1" parent="0" />
        <mxCell id="YHSLY1_65KMhqA-sjrPt-34" value="" style="edgeStyle=orthogonalEdgeStyle;rounded=0;orthogonalLoop=1;jettySize=auto;html=1;fontSize=18;" edge="1" parent="1" source="YHSLY1_65KMhqA-sjrPt-1" target="YHSLY1_65KMhqA-sjrPt-33">
          <mxGeometry relative="1" as="geometry" />
        </mxCell>
        <mxCell id="YHSLY1_65KMhqA-sjrPt-1" value="&lt;font style=&quot;font-size: 18px;&quot;&gt;开始&lt;/font&gt;" style="rounded=1;whiteSpace=wrap;html=1;fontSize=18;" vertex="1" parent="1">
          <mxGeometry x="260" y="30" width="120" height="60" as="geometry" />
        </mxCell>
        <mxCell id="YHSLY1_65KMhqA-sjrPt-9" value="" style="edgeStyle=orthogonalEdgeStyle;rounded=0;orthogonalLoop=1;jettySize=auto;html=1;fontSize=18;" edge="1" parent="1" source="YHSLY1_65KMhqA-sjrPt-4" target="YHSLY1_65KMhqA-sjrPt-8">
          <mxGeometry relative="1" as="geometry" />
        </mxCell>
        <mxCell id="YHSLY1_65KMhqA-sjrPt-4" value="&lt;span style=&quot;font-size: 18px;&quot;&gt;读取邮件&lt;/span&gt;" style="rounded=1;whiteSpace=wrap;html=1;fontSize=18;" vertex="1" parent="1">
          <mxGeometry x="260" y="250" width="120" height="60" as="geometry" />
        </mxCell>
        <mxCell id="YHSLY1_65KMhqA-sjrPt-11" value="" style="edgeStyle=orthogonalEdgeStyle;rounded=0;orthogonalLoop=1;jettySize=auto;html=1;fontSize=18;" edge="1" parent="1" source="YHSLY1_65KMhqA-sjrPt-8" target="YHSLY1_65KMhqA-sjrPt-10">
          <mxGeometry relative="1" as="geometry" />
        </mxCell>
        <mxCell id="YHSLY1_65KMhqA-sjrPt-12" value="是" style="edgeLabel;html=1;align=center;verticalAlign=middle;resizable=0;points=[];fontSize=18;" vertex="1" connectable="0" parent="YHSLY1_65KMhqA-sjrPt-11">
          <mxGeometry x="-0.2381" y="1" relative="1" as="geometry">
            <mxPoint as="offset" />
          </mxGeometry>
        </mxCell>
        <mxCell id="YHSLY1_65KMhqA-sjrPt-14" value="" style="edgeStyle=orthogonalEdgeStyle;rounded=0;orthogonalLoop=1;jettySize=auto;html=1;fontSize=18;" edge="1" parent="1" source="YHSLY1_65KMhqA-sjrPt-8" target="YHSLY1_65KMhqA-sjrPt-13">
          <mxGeometry relative="1" as="geometry" />
        </mxCell>
        <mxCell id="YHSLY1_65KMhqA-sjrPt-8" value="&lt;font style=&quot;font-size: 18px;&quot;&gt;是否为RPA机器人指令邮件，并未被处理过&lt;/font&gt;" style="rhombus;whiteSpace=wrap;html=1;rounded=1;fontSize=18;" vertex="1" parent="1">
          <mxGeometry x="240" y="360" width="160" height="110" as="geometry" />
        </mxCell>
        <mxCell id="YHSLY1_65KMhqA-sjrPt-17" value="" style="edgeStyle=orthogonalEdgeStyle;rounded=0;orthogonalLoop=1;jettySize=auto;html=1;fontSize=18;" edge="1" parent="1" source="YHSLY1_65KMhqA-sjrPt-10" target="YHSLY1_65KMhqA-sjrPt-16">
          <mxGeometry relative="1" as="geometry" />
        </mxCell>
        <mxCell id="YHSLY1_65KMhqA-sjrPt-10" value="调用RPA机器人API接口" style="whiteSpace=wrap;html=1;rounded=1;fontSize=18;" vertex="1" parent="1">
          <mxGeometry x="260" y="530" width="120" height="60" as="geometry" />
        </mxCell>
        <mxCell id="YHSLY1_65KMhqA-sjrPt-15" style="edgeStyle=orthogonalEdgeStyle;rounded=0;orthogonalLoop=1;jettySize=auto;html=1;entryX=1;entryY=0.5;entryDx=0;entryDy=0;fontSize=18;" edge="1" parent="1" source="YHSLY1_65KMhqA-sjrPt-13" target="YHSLY1_65KMhqA-sjrPt-4">
          <mxGeometry relative="1" as="geometry">
            <Array as="points">
              <mxPoint x="560" y="280" />
            </Array>
          </mxGeometry>
        </mxCell>
        <mxCell id="YHSLY1_65KMhqA-sjrPt-13" value="等待1分钟" style="whiteSpace=wrap;html=1;fontSize=18;rounded=1;" vertex="1" parent="1">
          <mxGeometry x="500" y="385" width="120" height="60" as="geometry" />
        </mxCell>
        <mxCell id="YHSLY1_65KMhqA-sjrPt-19" value="" style="edgeStyle=orthogonalEdgeStyle;rounded=0;orthogonalLoop=1;jettySize=auto;html=1;fontSize=18;" edge="1" parent="1" source="YHSLY1_65KMhqA-sjrPt-16" target="YHSLY1_65KMhqA-sjrPt-18">
          <mxGeometry relative="1" as="geometry" />
        </mxCell>
        <mxCell id="YHSLY1_65KMhqA-sjrPt-16" value="RPA机器人执行指定任务" style="whiteSpace=wrap;html=1;rounded=1;fontSize=18;" vertex="1" parent="1">
          <mxGeometry x="260" y="640" width="120" height="60" as="geometry" />
        </mxCell>
        <mxCell id="YHSLY1_65KMhqA-sjrPt-21" value="" style="edgeStyle=orthogonalEdgeStyle;rounded=0;orthogonalLoop=1;jettySize=auto;html=1;fontSize=18;" edge="1" parent="1" source="YHSLY1_65KMhqA-sjrPt-18" target="YHSLY1_65KMhqA-sjrPt-20">
          <mxGeometry relative="1" as="geometry" />
        </mxCell>
        <mxCell id="YHSLY1_65KMhqA-sjrPt-18" value="执行结果发送给业务人员" style="whiteSpace=wrap;html=1;rounded=1;fontSize=18;" vertex="1" parent="1">
          <mxGeometry x="260" y="750" width="120" height="60" as="geometry" />
        </mxCell>
        <mxCell id="YHSLY1_65KMhqA-sjrPt-27" style="edgeStyle=orthogonalEdgeStyle;rounded=0;orthogonalLoop=1;jettySize=auto;html=1;fontSize=18;" edge="1" parent="1" source="YHSLY1_65KMhqA-sjrPt-20" target="YHSLY1_65KMhqA-sjrPt-26">
          <mxGeometry relative="1" as="geometry" />
        </mxCell>
        <mxCell id="YHSLY1_65KMhqA-sjrPt-20" value="更新数据库" style="whiteSpace=wrap;html=1;rounded=1;fontSize=18;" vertex="1" parent="1">
          <mxGeometry x="260" y="865" width="120" height="60" as="geometry" />
        </mxCell>
        <mxCell id="YHSLY1_65KMhqA-sjrPt-28" style="edgeStyle=orthogonalEdgeStyle;rounded=0;orthogonalLoop=1;jettySize=auto;html=1;fontSize=18;" edge="1" parent="1" source="YHSLY1_65KMhqA-sjrPt-26" target="YHSLY1_65KMhqA-sjrPt-13">
          <mxGeometry relative="1" as="geometry" />
        </mxCell>
        <mxCell id="YHSLY1_65KMhqA-sjrPt-32" value="否" style="edgeLabel;html=1;align=center;verticalAlign=middle;resizable=0;points=[];fontSize=18;" vertex="1" connectable="0" parent="YHSLY1_65KMhqA-sjrPt-28">
          <mxGeometry x="-0.1143" y="1" relative="1" as="geometry">
            <mxPoint as="offset" />
          </mxGeometry>
        </mxCell>
        <mxCell id="YHSLY1_65KMhqA-sjrPt-30" value="" style="edgeStyle=orthogonalEdgeStyle;rounded=0;orthogonalLoop=1;jettySize=auto;html=1;fontSize=18;" edge="1" parent="1" source="YHSLY1_65KMhqA-sjrPt-26" target="YHSLY1_65KMhqA-sjrPt-29">
          <mxGeometry relative="1" as="geometry" />
        </mxCell>
        <mxCell id="YHSLY1_65KMhqA-sjrPt-31" value="是" style="edgeLabel;html=1;align=center;verticalAlign=middle;resizable=0;points=[];fontSize=18;" vertex="1" connectable="0" parent="YHSLY1_65KMhqA-sjrPt-30">
          <mxGeometry x="0.2235" relative="1" as="geometry">
            <mxPoint y="-7" as="offset" />
          </mxGeometry>
        </mxCell>
        <mxCell id="YHSLY1_65KMhqA-sjrPt-26" value="&lt;font style=&quot;font-size: 18px;&quot;&gt;是否满足结束条件&lt;/font&gt;" style="rhombus;whiteSpace=wrap;html=1;rounded=1;fontSize=18;" vertex="1" parent="1">
          <mxGeometry x="480" y="840" width="160" height="110" as="geometry" />
        </mxCell>
        <mxCell id="YHSLY1_65KMhqA-sjrPt-29" value="结束" style="whiteSpace=wrap;html=1;fontSize=18;rounded=1;" vertex="1" parent="1">
          <mxGeometry x="500" y="1010" width="120" height="60" as="geometry" />
        </mxCell>
        <mxCell id="YHSLY1_65KMhqA-sjrPt-35" value="" style="edgeStyle=orthogonalEdgeStyle;rounded=0;orthogonalLoop=1;jettySize=auto;html=1;fontSize=18;" edge="1" parent="1" source="YHSLY1_65KMhqA-sjrPt-33" target="YHSLY1_65KMhqA-sjrPt-4">
          <mxGeometry relative="1" as="geometry" />
        </mxCell>
        <mxCell id="YHSLY1_65KMhqA-sjrPt-33" value="&lt;font style=&quot;font-size: 18px;&quot;&gt;定时任务启动&lt;/font&gt;" style="rounded=1;whiteSpace=wrap;html=1;fontSize=18;" vertex="1" parent="1">
          <mxGeometry x="260" y="140" width="120" height="60" as="geometry" />
        </mxCell>
      </root>
    </mxGraphModel>
  </diagram>
</mxfile>
